<?xml version="1.0" encoding="UTF-8"?>
<svg xmlns="http://www.w3.org/2000/svg" xmlns:xlink="http://www.w3.org/1999/xlink" width="224" height="256" viewBox="0 0 224 256">
<path fill-rule="nonzero" fill="rgb(0%, 0%, 0%)" fill-opacity="1" d="M 113.300781 24 L 58.648438 24 L 67.199219 30.398438 C 70.199219 32.648438 72 36.199219 72 40 C 72 43.800781 70.199219 47.351562 67.199219 49.601562 L 63.949219 52.050781 C 58.949219 55.800781 55.949219 61.699219 55.949219 68 L 55.800781 113.5 C 55.800781 118.601562 58.25 123.449219 62.398438 126.398438 L 63.351562 127.050781 C 68.300781 130.601562 75 130.550781 79.949219 127 L 104.898438 108.851562 C 110.25 104.949219 117.75 106.148438 121.648438 111.5 C 125.550781 116.851562 124.351562 124.351562 119 128.25 L 94.050781 146.398438 L 67.148438 165.949219 C 63.5 168.601562 60.648438 172.050781 58.699219 176 L 33.398438 176 C 36.050781 164.949219 42.300781 155.050781 51.351562 147.851562 C 50.699219 147.449219 50.050781 147 49.449219 146.550781 L 48.5 145.898438 C 38 138.398438 31.800781 126.300781 31.851562 113.398438 L 32 67.898438 C 32.050781 58 35.351562 48.550781 41.300781 40.949219 L 41.101562 40.800781 C 35.351562 36.5 32 29.800781 32 22.648438 C 32 10.148438 42.148438 0 54.648438 0 L 113.300781 0 C 165.601562 0 208 42.398438 208 94.699219 C 208 100.25 207.5 105.800781 206.550781 111.300781 L 195.050781 176 L 170.648438 176 L 182.898438 107.101562 C 183.648438 103 184 98.851562 184 94.699219 C 184 55.648438 152.351562 24 113.300781 24 Z M 42.601562 216 L 34.351562 232 L 189.648438 232 L 181.351562 216 Z M 200.449219 200.648438 L 213.699219 226.25 C 215.199219 229.148438 216 232.351562 216 235.601562 C 216 246.851562 206.898438 256 195.601562 256 L 28.398438 256 C 17.101562 256 8 246.898438 8 235.601562 C 8 232.351562 8.800781 229.148438 10.300781 226.25 L 23.550781 200.648438 C 26.25 195.351562 31.75 192 37.75 192 L 186.25 192 C 192.25 192 197.699219 195.351562 200.449219 200.648438 Z M 86 64 C 91.523438 64 96 68.476562 96 74 C 96 79.523438 91.523438 84 86 84 C 80.476562 84 76 79.523438 76 74 C 76 68.476562 80.476562 64 86 64 Z M 86 64 "/>
</svg>
