<?xml version="1.0" encoding="UTF-8"?>
<svg xmlns="http://www.w3.org/2000/svg" xmlns:xlink="http://www.w3.org/1999/xlink" width="256" height="256" viewBox="0 0 256 256">
<path fill-rule="nonzero" fill="rgb(0%, 0%, 0%)" fill-opacity="1" d="M 128 24 C 70.5625 24 24 70.5625 24 128 C 24 185.4375 70.5625 232 128 232 C 185.4375 232 232 185.4375 232 128 C 232 70.5625 185.4375 24 128 24 Z M 256 128 C 256 198.691406 198.691406 256 128 256 C 57.308594 256 0 198.691406 0 128 C 0 57.308594 57.308594 0 128 0 C 198.691406 0 256 57.308594 256 128 Z M 72.199219 104 C 72.199219 95.164062 79.363281 88 88.199219 88 C 97.035156 88 104.199219 95.164062 104.199219 104 C 104.199219 112.835938 97.035156 120 88.199219 120 C 79.363281 120 72.199219 112.835938 72.199219 104 Z M 168.199219 88 C 177.035156 88 184.199219 95.164062 184.199219 104 C 184.199219 112.835938 177.035156 120 168.199219 120 C 159.363281 120 152.199219 112.835938 152.199219 104 C 152.199219 95.164062 159.363281 88 168.199219 88 Z M 168.199219 88 "/>
</svg>
