<?xml version="1.0" encoding="UTF-8"?>
<svg xmlns="http://www.w3.org/2000/svg" xmlns:xlink="http://www.w3.org/1999/xlink" width="192" height="256" viewBox="0 0 192 256">
<path fill-rule="nonzero" fill="rgb(0%, 0%, 0%)" fill-opacity="1" d="M 96 24 C 96 10.746094 106.746094 0 120 0 C 133.253906 0 144 10.746094 144 24 C 144 37.253906 133.253906 48 120 48 C 106.746094 48 96 37.253906 96 24 Z M 121.648438 115.351562 L 112.101562 153.5 L 136.949219 178.351562 C 141.449219 182.851562 144 188.949219 144 195.300781 L 144 240 C 144 248.851562 136.851562 256 128 256 C 119.148438 256 112 248.851562 112 240 L 112 198.648438 L 75.050781 161.699219 C 67.148438 153.800781 63.949219 142.398438 66.601562 131.550781 L 76.800781 89.550781 C 80.949219 72.5 98.148438 62.101562 115.148438 66.351562 C 124.648438 68.75 132.949219 74.550781 138.351562 82.699219 L 152.550781 104 L 168 104 L 168 92 C 168 85.351562 173.351562 80 180 80 C 186.648438 80 192 85.351562 192 92 L 192 119.898438 C 192 119.949219 192 120 192 120 C 192 120 192 120.101562 192 120.101562 L 192 244 C 192 250.648438 186.648438 256 180 256 C 173.351562 256 168 250.648438 168 244 L 168 136 L 148.300781 136 C 140.300781 136 132.800781 132 128.351562 125.300781 L 121.699219 115.300781 Z M 40.550781 235.949219 L 58.648438 167 C 60.148438 169.101562 61.851562 171.101562 63.699219 172.949219 L 84.648438 193.898438 L 71.449219 244.050781 C 69.199219 252.601562 60.449219 257.699219 51.898438 255.449219 C 43.351562 253.199219 38.25 244.449219 40.5 235.898438 Z M 68.300781 62.949219 L 50.699219 133.25 C 49.199219 139.300781 43.25 143.199219 37.101562 142.199219 L 13.148438 138.199219 C 6.148438 137.050781 1.699219 130.050781 3.550781 123.199219 L 15.949219 77.5 C 20.699219 60.101562 36.5 48 54.550781 48 L 56.648438 48 C 64.449219 48 70.199219 55.351562 68.300781 62.898438 Z M 68.300781 62.949219 "/>
</svg>
