<?xml version="1.0" encoding="UTF-8"?>
<svg xmlns="http://www.w3.org/2000/svg" xmlns:xlink="http://www.w3.org/1999/xlink" width="320" height="256" viewBox="0 0 320 256">
<path fill-rule="nonzero" fill="rgb(0%, 0%, 0%)" fill-opacity="1" d="M 32 32 L 144 32 L 144 36.898438 C 144 56.398438 132.148438 73.898438 114.050781 81.101562 C 83.800781 93.25 64 122.5 64 155.101562 L 64 192 L 32 192 Z M 176 32 L 288 32 L 288 192 L 254.148438 192 L 252.300781 189.75 L 214.699219 144.648438 C 210.148438 139.199219 203.398438 136 196.25 136 L 160.699219 136 L 140.199219 104.449219 C 140.050781 104.199219 139.898438 103.949219 139.699219 103.75 C 162.050781 89.25 175.949219 64.25 175.949219 36.949219 L 175.949219 32.050781 Z M 212.5 192 L 189.601562 192 L 210.949219 224 L 296 224 C 309.25 224 320 213.25 320 200 L 320 24 C 320 10.75 309.25 0 296 0 L 24 0 C 10.75 0 0 10.75 0 24 L 0 200 C 0 213.25 10.75 224 24 224 L 154.101562 224 L 170.699219 248.898438 C 175.601562 256.25 185.550781 258.25 192.898438 253.351562 C 200.25 248.449219 202.25 238.5 197.351562 231.148438 L 155.25 168 L 192.550781 168 L 212.550781 192 Z M 132.75 192 L 96 192 L 96 155.101562 C 96 150 96.800781 145.050781 98.351562 140.351562 Z M 96 64 C 96 50.746094 85.253906 40 72 40 C 58.746094 40 48 50.746094 48 64 C 48 77.253906 58.746094 88 72 88 C 85.253906 88 96 77.253906 96 64 Z M 96 64 "/>
</svg>
