<?xml version="1.0" encoding="UTF-8"?>
<svg xmlns="http://www.w3.org/2000/svg" xmlns:xlink="http://www.w3.org/1999/xlink" width="320" height="256" viewBox="0 0 320 256">
<path fill-rule="nonzero" fill="rgb(50.196078%, 0%, 50.196078%)" fill-opacity="1" d="M 176 62.25 L 150.050781 55.75 C 146.800781 54.949219 144.398438 52.199219 144.050781 48.851562 C 143.699219 45.5 145.449219 42.300781 148.398438 40.800781 L 168.800781 30.601562 L 147.199219 14.398438 C 144.449219 12.351562 143.300781 8.75 144.398438 5.449219 C 145.5 2.148438 148.550781 0 152 0 L 232 0 C 247.101562 0 261.351562 7.101562 270.398438 19.199219 L 299.199219 57.601562 C 302.300781 61.75 304 66.800781 304 72 C 304 85.25 293.25 96 280 96 L 269.25 96 C 260.75 96 252.601562 92.648438 246.601562 86.648438 L 240 80 L 224 80 L 224 90.75 C 224 103.148438 230.398438 114.699219 240.898438 121.300781 L 294.199219 154.601562 C 310.25 164.648438 320 182.199219 320 201.148438 C 320 231.449219 295.449219 256 265.101562 256 L 16.148438 256 C 14.5 256 12.851562 255.800781 11.351562 255.300781 C 6.75 253.898438 3 250.5 1.199219 246.050781 C 0.5 244.351562 0.101562 242.601562 0 240.699219 C -0.101562 238.851562 0.148438 237.050781 0.648438 235.351562 C 2.050781 230.75 5.449219 227 9.949219 225.148438 C 11.449219 224.550781 13.050781 224.148438 14.699219 224.050781 L 216.648438 206 C 220.800781 205.648438 224 202.148438 224 197.949219 C 224 195.800781 223.148438 193.75 221.648438 192.25 L 199.449219 170.050781 C 184.449219 155.050781 176 134.699219 176 113.5 Z M 256 36.148438 C 256 36.101562 256 36.050781 256 36 C 256 35.949219 256 35.898438 256 35.851562 Z M 255.351562 39.851562 L 232.148438 34.050781 C 232.050781 34.699219 232 35.351562 232 36 C 232 42.648438 237.351562 48 244 48 C 249.300781 48 253.75 44.601562 255.351562 39.851562 Z M 65.449219 58.25 C 73.601562 51 85.648438 50.148438 94.699219 56.199219 L 160 99.699219 L 160 113.5 C 160 129.898438 164.199219 145.898438 172 160 L 56 160 C 52.648438 160 49.648438 157.898438 48.5 154.800781 C 47.351562 151.699219 48.25 148.148438 50.800781 145.949219 L 85.5 116.148438 L 9.199219 127.898438 C 5.699219 128.449219 2.25 126.601562 0.75 123.398438 C -0.75 120.199219 0 116.351562 2.648438 114 Z M 65.449219 58.25 "/>
</svg>
