<?xml version="1.0" encoding="UTF-8"?>
<svg xmlns="http://www.w3.org/2000/svg" xmlns:xlink="http://www.w3.org/1999/xlink" width="256" height="256" viewBox="0 0 256 256">
<path fill-rule="nonzero" fill="rgb(0%, 0%, 0%)" fill-opacity="1" d="M 44 0 C 37.351562 0 32 5.351562 32 12 C 32 31.449219 43.699219 41.699219 51.550781 48.550781 L 52.101562 49.050781 C 60.25 56.148438 64 59.949219 64 68 C 64 74.648438 69.351562 80 76 80 C 82.648438 80 88 74.648438 88 68 C 88 48.550781 76.300781 38.300781 68.449219 31.449219 L 67.898438 30.949219 C 59.75 23.851562 56 20.050781 56 12 C 56 5.351562 50.648438 0 44 0 Z M 16 96 C 7.148438 96 0 103.148438 0 112 L 0 208 C 0 234.5 21.5 256 48 256 L 144 256 C 170.5 256 192 234.5 192 208 L 200 208 C 230.949219 208 256 182.949219 256 152 C 256 121.050781 230.949219 96 200 96 Z M 192 128 L 200 128 C 213.25 128 224 138.75 224 152 C 224 165.25 213.25 176 200 176 L 192 176 Z M 112 12 C 112 5.351562 106.648438 0 100 0 C 93.351562 0 88 5.351562 88 12 C 88 31.449219 99.699219 41.699219 107.550781 48.550781 L 108.101562 49.050781 C 116.25 56.148438 120 59.949219 120 68 C 120 74.648438 125.351562 80 132 80 C 138.648438 80 144 74.648438 144 68 C 144 48.550781 132.300781 38.300781 124.449219 31.449219 L 123.898438 30.949219 C 115.75 23.851562 112 20.050781 112 12 Z M 112 12 "/>
</svg>
