<?xml version="1.0" encoding="UTF-8"?>
<svg xmlns="http://www.w3.org/2000/svg" xmlns:xlink="http://www.w3.org/1999/xlink" width="224" height="256" viewBox="0 0 224 256">
<path fill-rule="nonzero" fill="rgb(100%, 64.705882%, 0%)" fill-opacity="1" d="M 48 0 C 21.5 0 0 21.5 0 48 L 0 208 C 0 234.5 21.5 256 48 256 L 208 256 C 216.851562 256 224 248.851562 224 240 C 224 231.148438 216.851562 224 208 224 L 208 192 C 216.851562 192 224 184.851562 224 176 L 224 16 C 224 7.148438 216.851562 0 208 0 Z M 48 192 L 176 192 L 176 224 L 48 224 C 39.148438 224 32 216.851562 32 208 C 32 199.148438 39.148438 192 48 192 Z M 64 72 C 64 67.601562 67.601562 64 72 64 L 168 64 C 172.398438 64 176 67.601562 176 72 C 176 76.398438 172.398438 80 168 80 L 72 80 C 67.601562 80 64 76.398438 64 72 Z M 72 96 L 168 96 C 172.398438 96 176 99.601562 176 104 C 176 108.398438 172.398438 112 168 112 L 72 112 C 67.601562 112 64 108.398438 64 104 C 64 99.601562 67.601562 96 72 96 Z M 72 96 "/>
</svg>
