<?xml version="1.0" encoding="UTF-8"?>
<svg xmlns="http://www.w3.org/2000/svg" xmlns:xlink="http://www.w3.org/1999/xlink" width="256" height="256" viewBox="0 0 256 256">
<path fill-rule="nonzero" fill="rgb(100%, 0%, 0%)" fill-opacity="1" d="M 16 16 C 7.148438 16 0 23.148438 0 32 C 0 40.851562 7.148438 48 16 48 L 240 48 C 248.851562 48 256 40.851562 256 32 C 256 23.148438 248.851562 16 240 16 Z M 16 208 C 7.148438 208 0 215.148438 0 224 C 0 232.851562 7.148438 240 16 240 L 80 240 L 80 176 C 80 149.5 101.5 128 128 128 C 154.5 128 176 149.5 176 176 L 176 240 L 240 240 C 248.851562 240 256 232.851562 256 224 C 256 215.148438 248.851562 208 240 208 L 240 64 L 16 64 Z M 16 208 "/>
</svg>
