<?xml version="1.0" encoding="UTF-8"?>
<svg xmlns="http://www.w3.org/2000/svg" xmlns:xlink="http://www.w3.org/1999/xlink" width="320" height="256" viewBox="0 0 320 256">
<path fill-rule="nonzero" fill="rgb(0%, 50.196078%, 0%)" fill-opacity="1" d="M 40 24 C 40 10.746094 50.746094 0 64 0 C 77.253906 0 88 10.746094 88 24 C 88 37.253906 77.253906 48 64 48 C 50.746094 48 40 37.253906 40 24 Z M 72 120.851562 L 72 153.398438 L 97.5 178.898438 C 101.050781 182.449219 103.398438 187 104.199219 191.949219 L 111.800781 237.398438 C 113.25 246.101562 107.351562 254.351562 98.648438 255.800781 C 89.949219 257.25 81.699219 251.351562 80.25 242.648438 L 73.101562 199.699219 L 33.398438 160 C 27.398438 154 24 145.851562 24 137.351562 L 24 93.300781 C 24 77.101562 37.101562 64 53.300781 64 C 65.351562 64 76.550781 70 83.25 80 L 106.949219 115.550781 L 112 118.050781 L 112 80 C 112 71.148438 119.148438 64 128 64 L 192 64 C 200.851562 64 208 71.148438 208 80 L 208 118.101562 L 213.050781 115.601562 L 236.75 80 C 243.398438 70 254.648438 64 266.699219 64 C 282.898438 64 296 77.101562 296 93.300781 L 296 137.351562 C 296 145.851562 292.648438 154 286.648438 160 L 246.949219 199.699219 L 239.800781 242.648438 C 238.351562 251.351562 230.101562 257.25 221.398438 255.800781 C 212.699219 254.351562 206.800781 246.101562 208.25 237.398438 L 215.851562 191.949219 C 216.648438 187 219 182.449219 222.550781 178.898438 L 248.050781 153.398438 L 248.050781 120.851562 L 238.550781 135.101562 C 236.25 138.601562 233.050781 141.398438 229.300781 143.25 L 199.5 158.148438 C 198.300781 158.800781 197.050781 159.25 195.699219 159.550781 C 194.398438 159.851562 193.050781 160 191.75 159.949219 L 128.351562 159.949219 C 127.101562 160 125.851562 159.851562 124.601562 159.601562 C 123.148438 159.300781 121.800781 158.800781 120.550781 158.101562 L 90.800781 143.199219 C 87.050781 141.351562 83.898438 138.5 81.550781 135.050781 L 72.050781 120.800781 Z M 1.148438 234.050781 L 25.050781 174.300781 L 49.648438 198.898438 L 30.851562 245.898438 C 27.550781 254.101562 18.25 258.101562 10.050781 254.800781 C 1.851562 251.5 -2.148438 242.25 1.148438 234.050781 Z M 256 0 C 269.253906 0 280 10.746094 280 24 C 280 37.253906 269.253906 48 256 48 C 242.746094 48 232 37.253906 232 24 C 232 10.746094 242.746094 0 256 0 Z M 294.949219 174.300781 L 318.851562 234.050781 C 322.148438 242.25 318.148438 251.550781 309.949219 254.851562 C 301.75 258.148438 292.449219 254.148438 289.148438 245.949219 L 270.351562 198.949219 L 294.949219 174.351562 Z M 294.949219 174.300781 "/>
</svg>
