<?xml version="1.0" encoding="UTF-8"?>
<svg xmlns="http://www.w3.org/2000/svg" xmlns:xlink="http://www.w3.org/1999/xlink" width="256" height="256" viewBox="0 0 256 256">
<path fill-rule="nonzero" fill="rgb(0%, 0%, 0%)" fill-opacity="1" d="M 220.5 29.449219 L 226.550781 35.5 C 231.25 40.199219 231.25 47.800781 226.550781 52.449219 L 212 67.050781 L 188.949219 44 L 203.5 29.449219 C 208.199219 24.75 215.800781 24.75 220.449219 29.449219 Z M 104.898438 128.101562 L 172 60.949219 L 195.050781 84 L 127.898438 151.101562 C 126.449219 152.550781 124.648438 153.601562 122.699219 154.148438 L 93.449219 162.5 L 101.800781 133.25 C 102.351562 131.300781 103.398438 129.5 104.851562 128.050781 Z M 186.550781 12.5 L 87.898438 111.101562 C 83.550781 115.449219 80.398438 120.800781 78.75 126.648438 L 64.449219 176.648438 C 63.25 180.851562 64.398438 185.351562 67.5 188.449219 C 70.601562 191.550781 75.101562 192.699219 79.300781 191.5 L 129.300781 177.199219 C 135.199219 175.5 140.550781 172.351562 144.851562 168.050781 L 243.5 69.449219 C 257.550781 55.398438 257.550781 32.601562 243.5 18.550781 L 237.449219 12.5 C 223.398438 -1.550781 200.601562 -1.550781 186.550781 12.5 Z M 44 32 C 19.699219 32 0 51.699219 0 76 L 0 212 C 0 236.300781 19.699219 256 44 256 L 180 256 C 204.300781 256 224 236.300781 224 212 L 224 156 C 224 149.351562 218.648438 144 212 144 C 205.351562 144 200 149.351562 200 156 L 200 212 C 200 223.050781 191.050781 232 180 232 L 44 232 C 32.949219 232 24 223.050781 24 212 L 24 76 C 24 64.949219 32.949219 56 44 56 L 100 56 C 106.648438 56 112 50.648438 112 44 C 112 37.351562 106.648438 32 100 32 Z M 44 32 "/>
</svg>
