<?xml version="1.0" encoding="UTF-8"?>
<svg xmlns="http://www.w3.org/2000/svg" xmlns:xlink="http://www.w3.org/1999/xlink" width="224" height="256" viewBox="0 0 224 256">
<path fill-rule="nonzero" fill="rgb(0%, 0%, 0%)" fill-opacity="1" d="M 105.300781 2.949219 L 31 84.699219 C 29.050781 86.800781 28 89.601562 28 92.449219 C 28 98.851562 33.148438 104 39.550781 104 L 52 104 L 15.300781 140.699219 C 13.199219 142.800781 12 145.699219 12 148.699219 C 12 154.949219 17.050781 160 23.300781 160 L 40 160 L 2.699219 204.75 C 0.949219 206.851562 0 209.5 0 212.25 C 0 218.75 5.25 224 11.75 224 L 96 224 L 96 240 C 96 248.851562 103.148438 256 112 256 C 120.851562 256 128 248.851562 128 240 L 128 224 L 212.25 224 C 218.75 224 224 218.75 224 212.25 C 224 209.5 223.050781 206.851562 221.300781 204.75 L 184 160 L 200.699219 160 C 206.949219 160 212 154.949219 212 148.699219 C 212 145.699219 210.800781 142.800781 208.699219 140.699219 L 172 104 L 184.449219 104 C 190.800781 104 196 98.851562 196 92.449219 C 196 89.601562 194.949219 86.800781 193 84.699219 L 118.699219 2.949219 C 117 1.050781 114.550781 0 112 0 C 109.449219 0 107 1.050781 105.300781 2.949219 Z M 105.300781 2.949219 "/>
</svg>
