<?xml version="1.0" encoding="UTF-8"?>
<svg xmlns="http://www.w3.org/2000/svg" xmlns:xlink="http://www.w3.org/1999/xlink" width="320" height="256" viewBox="0 0 320 256">
<path fill-rule="nonzero" fill="rgb(0%, 0%, 0%)" fill-opacity="1" d="M 104 32 C 104 27.582031 100.417969 24 96 24 C 91.582031 24 88 27.582031 88 32 C 88 36.417969 91.582031 40 96 40 C 100.417969 40 104 36.417969 104 32 Z M 128 32 C 128 40.101562 125 47.550781 120 53.148438 L 127.800781 68.75 C 137.148438 65.75 147.75 64 160 64 C 172.25 64 182.898438 65.75 192.199219 68.75 L 200 53.148438 C 195 47.550781 192 40.101562 192 32 C 192 14.351562 206.351562 0 224 0 C 241.648438 0 256 14.351562 256 32 C 256 49.648438 241.648438 64 224 64 C 223.148438 64 222.300781 63.949219 221.449219 63.898438 L 213.898438 79 C 224.449219 85.800781 232.75 94.101562 239.601562 102.199219 C 243.148438 106.351562 246.351562 110.5 249.25 114.199219 L 249.949219 115.101562 C 253.101562 119.148438 255.75 122.5 258.300781 125.300781 C 263.648438 131.148438 266.351562 132 268 132 C 269.25 132 270.148438 131.699219 271.550781 130.351562 C 273.398438 128.601562 275.101562 125.949219 277.800781 121.648438 L 278.101562 121.199219 C 280.398438 117.5 283.601562 112.398438 287.800781 108.351562 C 292.648438 103.699219 299.25 100 308 100 C 314.648438 100 320 105.351562 320 112 C 320 118.648438 314.648438 124 308 124 C 306.75 124 305.851562 124.300781 304.449219 125.648438 C 302.601562 127.398438 300.898438 130.050781 298.199219 134.351562 L 297.898438 134.800781 C 295.601562 138.5 292.398438 143.601562 288.199219 147.648438 C 283.351562 152.300781 276.75 156 268 156 C 258.75 156 251.550781 151.75 245.851562 146.699219 C 244.300781 148.699219 242.550781 150.851562 240.601562 153.050781 C 241.300781 155.199219 242 157.300781 242.601562 159.300781 C 243.050781 160.800781 243.5 162.199219 243.898438 163.601562 C 245.398438 168.5 246.648438 172.699219 248.199219 176.550781 C 250.148438 181.449219 251.898438 184.25 253.601562 185.800781 C 254.898438 187 256.550781 187.949219 260 187.949219 C 264.351562 187.949219 268.449219 185.851562 276.851562 181.351562 C 284.351562 177.351562 294.699219 171.949219 308 171.949219 C 314.648438 171.949219 320 177.300781 320 183.949219 C 320 190.601562 314.648438 195.949219 308 195.949219 C 301.300781 195.949219 295.648438 198.550781 288.148438 202.550781 C 287.648438 202.851562 287.101562 203.101562 286.550781 203.398438 C 279.949219 207 270.699219 212 260 212 C 250.800781 212 243.199219 208.949219 237.25 203.398438 C 231.699219 198.25 228.300781 191.550781 225.898438 185.398438 C 224.101562 180.898438 222.550781 175.851562 221.148438 171.148438 C 212.949219 177.300781 203.101562 182.949219 191.699219 186.800781 C 193.5 192.199219 195.898438 198.550781 198.898438 204.898438 C 202.648438 212.851562 207 220.101562 211.800781 225.148438 C 216.5 230.25 220.601562 232 224 232 C 230.648438 232 236 237.351562 236 244 C 236 250.648438 230.648438 256 224 256 C 211.398438 256 201.5 249.25 194.25 241.601562 C 187 233.898438 181.398438 224.148438 177.148438 215.101562 C 173.148438 206.601562 170.101562 198.199219 168 191.648438 C 165.398438 191.851562 162.699219 191.949219 160 191.949219 C 157.300781 191.949219 154.601562 191.851562 152 191.648438 C 149.898438 198.148438 146.851562 206.601562 142.851562 215.101562 C 138.601562 224.148438 132.949219 233.898438 125.75 241.601562 C 118.5 249.25 108.601562 256 96 256 C 89.351562 256 84 250.648438 84 244 C 84 237.351562 89.351562 232 96 232 C 99.398438 232 103.5 230.25 108.25 225.148438 C 113 220.101562 117.398438 212.851562 121.148438 204.898438 C 124.101562 198.601562 126.5 192.199219 128.351562 186.800781 C 116.949219 182.949219 107.101562 177.300781 98.898438 171.148438 C 97.449219 175.851562 95.898438 180.898438 94.148438 185.398438 C 91.75 191.5 88.351562 198.199219 82.800781 203.398438 C 76.800781 208.949219 69.199219 212 60 212 C 49.300781 212 40.050781 207 33.449219 203.449219 C 32.898438 203.148438 32.351562 202.851562 31.851562 202.601562 C 24.351562 198.601562 18.699219 196 12 196 C 5.351562 196 0 190.648438 0 184 C 0 177.351562 5.351562 172 12 172 C 25.300781 172 35.648438 177.398438 43.148438 181.398438 C 51.550781 185.898438 55.648438 188 60 188 C 63.398438 188 65.101562 187.050781 66.398438 185.851562 C 68.101562 184.25 69.898438 181.449219 71.800781 176.601562 C 73.300781 172.75 74.601562 168.550781 76.101562 163.648438 C 76.5 162.300781 76.949219 160.851562 77.398438 159.351562 C 78 157.351562 78.699219 155.25 79.398438 153.101562 C 77.449219 150.851562 75.699219 148.699219 74.148438 146.75 C 68.449219 151.75 61.25 156 52 156 C 43.25 156 36.648438 152.300781 31.800781 147.648438 C 27.601562 143.601562 24.398438 138.5 22.101562 134.800781 L 21.800781 134.351562 C 19.101562 130.050781 17.398438 127.398438 15.550781 125.648438 C 14.148438 124.300781 13.25 124 12 124 C 5.351562 124 0 118.648438 0 112 C 0 105.351562 5.351562 100 12 100 C 20.75 100 27.351562 103.699219 32.199219 108.351562 C 36.398438 112.398438 39.601562 117.5 41.898438 121.199219 L 42.199219 121.648438 C 44.898438 125.949219 46.601562 128.601562 48.449219 130.351562 C 49.851562 131.699219 50.75 132 52 132 C 53.648438 132 56.351562 131.148438 61.699219 125.300781 C 64.25 122.5 66.898438 119.148438 70.050781 115.101562 L 70.75 114.199219 C 73.648438 110.5 76.851562 106.351562 80.398438 102.199219 C 87.300781 94.101562 95.550781 85.800781 106.101562 79 L 98.550781 63.898438 C 97.699219 63.949219 96.851562 64 96 64 C 78.351562 64 64 49.648438 64 32 C 64 14.351562 78.351562 0 96 0 C 113.648438 0 128 14.351562 128 32 Z M 232 32 C 232 27.582031 228.417969 24 224 24 C 219.582031 24 216 27.582031 216 32 C 216 36.417969 219.582031 40 224 40 C 228.417969 40 232 36.417969 232 32 Z M 232 32 "/>
</svg>
