<?xml version="1.0" encoding="UTF-8"?>
<svg xmlns="http://www.w3.org/2000/svg" xmlns:xlink="http://www.w3.org/1999/xlink" width="256" height="256" viewBox="0 0 256 256">
<path fill-rule="nonzero" fill="rgb(0%, 0%, 100%)" fill-opacity="1" d="M 208 104 C 208 126.949219 200.550781 148.148438 188 165.351562 L 251.300781 228.699219 C 257.550781 234.949219 257.550781 245.101562 251.300781 251.351562 C 245.050781 257.601562 234.898438 257.601562 228.648438 251.351562 L 165.351562 188 C 148.148438 200.601562 126.949219 208 104 208 C 46.550781 208 0 161.449219 0 104 C 0 46.550781 46.550781 0 104 0 C 161.449219 0 208 46.550781 208 104 Z M 52 108 L 52 140 C 52 146.648438 57.351562 152 64 152 C 70.648438 152 76 146.648438 76 140 L 76 108 C 76 101.351562 70.648438 96 64 96 C 57.351562 96 52 101.351562 52 108 Z M 92 60 L 92 140 C 92 146.648438 97.351562 152 104 152 C 110.648438 152 116 146.648438 116 140 L 116 60 C 116 53.351562 110.648438 48 104 48 C 97.351562 48 92 53.351562 92 60 Z M 132 92 L 132 140 C 132 146.648438 137.351562 152 144 152 C 150.648438 152 156 146.648438 156 140 L 156 92 C 156 85.351562 150.648438 80 144 80 C 137.351562 80 132 85.351562 132 92 Z M 132 92 "/>
</svg>
