<?xml version="1.0" encoding="UTF-8"?>
<svg xmlns="http://www.w3.org/2000/svg" xmlns:xlink="http://www.w3.org/1999/xlink" width="320" height="256" viewBox="0 0 320 256">
<path fill-rule="nonzero" fill="rgb(0%, 0%, 0%)" fill-opacity="1" d="M 168 0 C 154.75 0 144 10.75 144 24 L 144 70.050781 L 179.699219 129.25 C 180.949219 128.449219 182.398438 128 184 128 L 200 128 C 204.398438 128 208 131.601562 208 136 L 208 152 C 208 156.398438 204.398438 160 200 160 L 198.25 160 L 235.148438 221.199219 C 241.351562 231.5 241.601562 244.351562 235.75 254.851562 C 235.550781 255.25 235.300781 255.648438 235.050781 256 L 296 256 C 309.25 256 320 245.25 320 232 L 320 120 C 320 106.75 309.25 96 296 96 L 284 96 L 284 60 C 284 53.351562 278.648438 48 272 48 C 265.351562 48 260 53.351562 260 60 L 260 96 L 240 96 L 240 24 C 240 10.75 229.25 0 216 0 Z M 184 32 L 200 32 C 204.398438 32 208 35.601562 208 40 L 208 56 C 208 60.398438 204.398438 64 200 64 L 184 64 C 179.601562 64 176 60.398438 176 56 L 176 40 C 176 35.601562 179.601562 32 184 32 Z M 176 88 C 176 83.601562 179.601562 80 184 80 L 200 80 C 204.398438 80 208 83.601562 208 88 L 208 104 C 208 108.398438 204.398438 112 200 112 L 184 112 C 179.601562 112 176 108.398438 176 104 Z M 256 136 C 256 131.601562 259.601562 128 264 128 L 280 128 C 284.398438 128 288 131.601562 288 136 L 288 152 C 288 156.398438 284.398438 160 280 160 L 264 160 C 259.601562 160 256 156.398438 256 152 Z M 264 176 L 280 176 C 284.398438 176 288 179.601562 288 184 L 288 200 C 288 204.398438 284.398438 208 280 208 L 264 208 C 259.601562 208 256 204.398438 256 200 L 256 184 C 256 179.601562 259.601562 176 264 176 Z M 112 94.449219 L 141.898438 144 L 111.5 144 L 87.5 176 L 75.199219 155.398438 Z M 126.699219 72.351562 C 123.550781 67.148438 118 64 112 64 C 106 64 100.449219 67.148438 97.300781 72.351562 L 2.550781 229.449219 C -0.699219 234.851562 -0.800781 241.601562 2.199219 247.101562 C 5.199219 252.601562 11 256 17.25 256 L 206.75 256 C 213 256 218.75 252.601562 221.800781 247.101562 C 224.851562 241.601562 224.699219 234.851562 221.449219 229.449219 Z M 126.699219 72.351562 "/>
</svg>
